<svg class="svg-icon" style="width: 1em; height: 1em;vertical-align: middle;fill: currentColor;overflow: hidden;" viewBox="0 0 1024 1024" version="1.1" xmlns="http://www.w3.org/2000/svg"><path d="M746.688 106.666667c-19.861333 0-39.594667 3.498667-58.154667 10.197333C658.752 46.997333 589.290667 0 512.021333 0c-77.290667 0-146.752 46.997333-176.576 116.864A171.413333 171.413333 0 0 0 277.354667 106.666667c-94.144 0-170.730667 76.565333-170.730667 170.666666 0 88.469333 64.021333 159.210667 149.290667 169.408v553.322667a21.333333 21.333333 0 0 0 21.333333 21.333333h469.333333a21.333333 21.333333 0 0 0 21.333334-21.333333V446.741333c85.312-10.197333 149.376-80.938667 149.376-169.408 0-94.101333-76.522667-170.666667-170.602667-170.666666zM298.581333 978.730667v-128h426.666667v128h-426.666667z m448-573.397334a21.333333 21.333333 0 0 0-21.333333 21.333334v381.397333h-85.333333v-149.333333a21.333333 21.333333 0 0 0-42.666667 0v149.333333h-64v-192a21.333333 21.333333 0 0 0-42.666667 0v192h-64v-149.333333a21.333333 21.333333 0 0 0-42.666666 0v149.333333h-85.333334V426.666667a21.333333 21.333333 0 0 0-21.333333-21.333334c-71.744 0-127.957333-56.234667-127.957333-128 0-70.592 57.450667-128 128.064-128 21.056 0 41.92 5.248 60.373333 15.146667a21.333333 21.333333 0 0 0 30.634667-12.970667A149.888 149.888 0 0 1 512.021333 42.666667a149.781333 149.781333 0 0 1 143.573334 108.842666 21.290667 21.290667 0 0 0 30.634666 12.992A128.085333 128.085333 0 0 1 746.688 149.333333a128.106667 128.106667 0 0 1 127.936 128c0 71.765333-56.234667 128-128.042667 128z" fill="#010101" /></svg>